<svg width="1315" height="260" viewBox="0 0 1315 260" fill="none" xmlns="http://www.w3.org/2000/svg">
<path d="M60.3966 243.722V173.492L97.4726 168.145L131.697 243.722H198.719L154.156 153.172C178.398 139.625 191.945 117.523 191.945 88.6465C191.945 42.3021 166.634 12 104.959 12H3V243.722H60.3966ZM60.3966 122.157V61.1964H100.681C121.715 61.1964 131.34 69.7523 131.34 88.6465C131.34 106.115 125.28 115.027 85.3516 119.305L60.3966 122.157Z" fill="white"/>
<path d="M391.548 189.891C376.218 194.169 349.124 199.517 327.021 199.517C313.474 199.517 300.64 197.378 290.658 192.03L400.817 150.32V145.686C400.817 95.7764 370.158 57.9879 307.77 57.9879C250.017 57.9879 210.446 95.4199 210.446 154.955C210.446 225.184 257.86 248 319.178 248C345.559 248 372.297 243.009 395.113 234.81L391.548 189.891ZM270.338 158.52V153.529C270.338 120.375 286.737 105.402 307.057 105.402C324.882 105.402 335.934 112.532 335.934 130L270.338 158.52Z" fill="white"/>
<path d="M428.291 116.81C446.473 113.245 473.21 107.897 497.452 107.897C515.277 107.897 526.329 111.106 532.033 118.949L486.757 128.931C439.343 139.269 415.814 154.955 415.814 192.03C415.814 231.245 439.699 248 472.141 248C499.948 248 520.625 237.305 537.024 221.263V243.722H593.707V124.653C593.707 75.0997 559.84 57.9879 506.365 57.9879C477.132 57.9879 452.89 61.5529 425.083 69.0393L428.291 116.81ZM475.706 185.257C475.706 169.928 487.114 163.867 503.513 159.589L537.024 151.39V189.535C525.972 198.447 511.712 205.221 497.809 205.221C483.905 205.221 475.706 200.943 475.706 185.257Z" fill="white"/>
<path d="M728.538 199.873C700.731 199.873 678.272 188.465 678.272 153.172C678.272 117.523 700.018 106.115 726.043 106.115C741.016 106.115 758.841 110.393 772.031 114.671L780.944 68.3263C762.406 61.1964 743.868 57.9879 721.765 57.9879C663.299 57.9879 618.38 88.29 618.38 154.955C618.38 219.837 662.586 248 720.695 248C741.016 248 757.058 244.792 782.37 236.236L775.953 192.03C762.049 196.308 743.511 199.873 728.538 199.873Z" fill="white"/>
<path d="M819.798 108.967V184.9C819.798 234.097 847.605 248 884.325 248C909.636 248 917.479 246.574 935.661 242.296L932.809 195.595C924.966 197.734 912.845 200.586 901.793 200.586C888.246 200.586 876.482 196.665 876.482 182.761V108.967H933.878V63.6919H876.482V24.1208H819.798V63.6919H793.774V108.967H819.798Z" fill="white"/>
<path d="M949.705 154.598C949.705 210.568 994.624 248 1052.02 248C1109.42 248 1155.76 211.637 1155.76 154.598C1155.76 90.0725 1106.92 57.9879 1053.09 57.9879C1001.04 57.9879 949.705 90.0725 949.705 154.598ZM1009.6 154.598C1009.6 125.009 1026.71 106.115 1052.73 106.115C1078.76 106.115 1095.87 122.87 1095.87 154.598C1095.87 183.474 1078.76 199.873 1052.73 199.873C1025.64 199.873 1009.6 182.761 1009.6 154.598Z" fill="white"/>
<path d="M1239.2 136.773C1252.4 123.583 1270.22 116.453 1288.76 116.453C1296.24 116.453 1305.87 117.166 1313 117.879V59.7704C1309.79 59.4139 1306.94 59.4139 1304.09 59.4139C1279.85 59.4139 1257.74 74.0302 1239.2 92.2115V63.3354H1182.52V243.722H1239.2V136.773Z" fill="white"/>
<path d="M60.3966 243.722V173.492L97.4726 168.145L131.697 243.722H198.719L154.156 153.172C178.398 139.625 191.945 117.523 191.945 88.6465C191.945 42.3021 166.634 12 104.959 12H3V243.722H60.3966ZM60.3966 122.157V61.1964H100.681C121.715 61.1964 131.34 69.7523 131.34 88.6465C131.34 106.115 125.28 115.027 85.3516 119.305L60.3966 122.157Z" fill="#1A465C"/>
<path d="M391.548 189.891C376.218 194.169 349.124 199.517 327.021 199.517C313.474 199.517 300.64 197.378 290.658 192.03L400.817 150.32V145.686C400.817 95.7764 370.158 57.9879 307.77 57.9879C250.017 57.9879 210.446 95.4199 210.446 154.955C210.446 225.184 257.86 248 319.178 248C345.559 248 372.297 243.009 395.113 234.81L391.548 189.891ZM270.338 158.52V153.529C270.338 120.375 286.737 105.402 307.057 105.402C324.882 105.402 335.934 112.532 335.934 130L270.338 158.52Z" fill="#1A465C"/>
<path d="M428.291 116.81C446.473 113.245 473.21 107.897 497.452 107.897C515.277 107.897 526.329 111.106 532.033 118.949L486.757 128.931C439.343 139.269 415.814 154.955 415.814 192.03C415.814 231.245 439.699 248 472.141 248C499.948 248 520.625 237.305 537.024 221.263V243.722H593.707V124.653C593.707 75.0997 559.84 57.9879 506.365 57.9879C477.132 57.9879 452.89 61.5529 425.083 69.0393L428.291 116.81ZM475.706 185.257C475.706 169.928 487.114 163.867 503.513 159.589L537.024 151.39V189.535C525.972 198.447 511.712 205.221 497.809 205.221C483.905 205.221 475.706 200.943 475.706 185.257Z" fill="#1A465C"/>
<path d="M728.538 199.873C700.731 199.873 678.272 188.465 678.272 153.172C678.272 117.523 700.018 106.115 726.043 106.115C741.016 106.115 758.841 110.393 772.031 114.671L780.944 68.3263C762.406 61.1964 743.868 57.9879 721.765 57.9879C663.299 57.9879 618.38 88.29 618.38 154.955C618.38 219.837 662.586 248 720.695 248C741.016 248 757.058 244.792 782.37 236.236L775.953 192.03C762.049 196.308 743.511 199.873 728.538 199.873Z" fill="#1A465C"/>
<path d="M819.798 108.967V184.9C819.798 234.097 847.605 248 884.325 248C909.636 248 917.479 246.574 935.661 242.296L932.809 195.595C924.966 197.734 912.845 200.586 901.793 200.586C888.246 200.586 876.482 196.665 876.482 182.761V108.967H933.878V63.6919H876.482V24.1208H819.798V63.6919H793.774V108.967H819.798Z" fill="#1A465C"/>
<path d="M949.705 154.598C949.705 210.568 994.624 248 1052.02 248C1109.42 248 1155.76 211.637 1155.76 154.598C1155.76 90.0725 1106.92 57.9879 1053.09 57.9879C1001.04 57.9879 949.705 90.0725 949.705 154.598ZM1009.6 154.598C1009.6 125.009 1026.71 106.115 1052.73 106.115C1078.76 106.115 1095.87 122.87 1095.87 154.598C1095.87 183.474 1078.76 199.873 1052.73 199.873C1025.64 199.873 1009.6 182.761 1009.6 154.598Z" fill="#1A465C"/>
<path d="M1239.2 136.773C1252.4 123.583 1270.22 116.453 1288.76 116.453C1296.24 116.453 1305.87 117.166 1313 117.879V59.7704C1309.79 59.4139 1306.94 59.4139 1304.09 59.4139C1279.85 59.4139 1257.74 74.0302 1239.2 92.2115V63.3354H1182.52V243.722H1239.2V136.773Z" fill="#1A465C"/>
</svg>
