<?xml version="1.0" encoding="UTF-8" standalone="no"?>
<svg width="1316px" height="282px" viewBox="0 0 1316 282" version="1.1" xmlns="http://www.w3.org/2000/svg" xmlns:xlink="http://www.w3.org/1999/xlink">
    <!-- Generator: Sketch 39.1 (31720) - http://www.bohemiancoding.com/sketch -->
    <title>logo_white</title>
    <desc>Created with Sketch.</desc>
    <defs>
        <polygon id="path-1" points="217.969481 0.296474628 0.00629678417 0.296474628 0.00629678417 272.954191 217.969481 272.954191 217.969481 0.296474628"></polygon>
        <polygon id="path-3" points="122.281625 202.203649 122.281625 0.118474908 0.887497297 0.118474908 0.887497297 202.203649"></polygon>
    </defs>
    <g id="Page-1" stroke="none" stroke-width="1" fill="none" fill-rule="evenodd">
        <g id="home_reactor_red" transform="translate(-62.000000, -46.000000)">
            <g id="logo_white" transform="translate(62.000000, 46.000000)">
                <g id="Group-3" transform="translate(0.000000, 0.521252)">
                    <mask id="mask-2" fill="white">
                        <use xlink:href="#path-1"></use>
                    </mask>
                    <g id="Clip-2"></g>
                    <path d="M57.1181292,124.468455 L109.601825,124.687738 C138.079032,124.797379 152.829249,109.807838 152.9237,87.2373794 C153.018152,64.2126924 138.393871,49.0978469 109.916665,48.9882055 L57.4329685,48.7689228 L57.1181292,124.468455 Z M56.9292257,170.940731 L56.4884508,272.296343 L0.00629678417,272.061397 L1.13971794,0.291775712 L113.694735,0.761667283 C171.074181,0.996613068 209.201209,31.6961957 208.96508,87.4723252 C208.791918,130.843317 184.659493,158.175344 146.359303,167.322566 L217.969481,272.954191 L153.915444,272.703582 L86.7287568,171.066036 L56.9292257,170.940731 Z" id="Fill-1" fill="#FFFFFF" mask="url(#mask-2)"></path>
                </g>
                <path d="M280.664987,153.347663 L357.627431,153.676587 C357.265366,132.860391 344.876443,116.445512 322.192278,116.351533 C300.84618,116.257555 285.655188,129.022943 280.664987,153.347663 L280.664987,153.347663 Z M410.331515,209.671999 C403.042987,251.664643 371.795196,278.542441 321.971891,278.338821 C264.135928,278.103875 225.615351,235.907612 225.867223,174.821708 C226.119094,115.067163 266.339803,71.4142361 321.940407,71.6335188 C380.217145,71.8841276 412.078872,112.294803 411.842743,170.279423 L411.764033,187.101541 L279.200984,186.553334 C280.85389,216.219155 297.682046,233.965394 322.145053,234.075035 C340.83076,234.15335 354.652201,226.243509 359.170143,209.452717 L410.331515,209.671999 Z" id="Fill-4" fill="#FFFFFF"></path>
                <path d="M550.653776,206.700718 C545.805252,196.065506 530.708712,189.361719 514.699138,189.299067 C497.351498,189.220752 479.515857,196.676365 479.452889,213.498483 C479.374179,230.743504 497.146852,237.901519 514.494493,237.979834 C530.504067,238.042486 545.663575,231.464004 550.60655,220.860118 L550.653776,206.700718 Z M550.370421,274.866322 L550.417647,264.246773 C543.711571,270.856581 523.672056,278.296531 501.869441,278.202552 C461.821893,278.045922 428.118356,254.880267 428.291518,213.717766 C428.448937,176.110777 462.372862,150.564339 505.521575,150.752295 C522.869216,150.83061 542.861506,156.657266 550.84268,162.452595 L550.905647,147.838967 C550.984357,131.016849 540.799309,117.249026 518.555919,117.155048 C502.98712,117.092396 493.604911,124.140769 489.118453,135.63745 L436.619015,135.402504 C442.569476,99.5811031 475.155334,72.2804029 520.523664,72.4683595 C573.463877,72.6719792 604.034764,101.585974 603.830118,148.935381 L603.310634,275.085605 L550.370421,274.866322 Z" id="Fill-6" fill="#FFFFFF"></path>
                <path d="M725.967267,73.3204295 C775.790572,73.5240492 807.243009,102.876609 812.862888,144.947568 L758.584609,144.728285 C755.530668,129.660429 743.551037,120.309587 725.762621,120.231271 C700.402323,120.137293 684.739072,143.083665 684.597395,176.727901 C684.455717,209.917909 699.930064,232.989585 725.290362,233.099227 C743.078778,233.177542 755.152861,223.936341 758.316995,208.899811 L812.579533,209.134757 C806.629072,251.597292 774.909022,280.229351 725.085717,280.010069 C668.603563,279.790786 629.626469,237.563197 629.87834,176.492955 C630.145954,114.968486 669.469371,73.0854838 725.967267,73.3204295" id="Fill-8" fill="#FFFFFF"></path>
                <path d="M854.5476,122.541572 L824.291552,122.416267 L824.480455,78.1524812 L854.736503,78.2777856 L854.956891,24.7258096 L909.675945,24.9607554 L909.439816,78.4970683 L953.045046,78.685025 L952.856143,122.948811 L909.266654,122.776517 L908.904589,209.534164 C908.825879,225.00926 917.247828,232.120286 931.494302,232.182938 C939.947735,232.214264 949.314201,229.598535 955.548018,225.651445 L955.32763,274.332212 C947.771489,278.279301 934.406565,280.440803 919.735058,280.37815 C879.246736,280.205857 853.980889,260.188476 854.169793,216.378918 L854.5476,122.541572 Z" id="Fill-10" fill="#FFFFFF"></path>
                <path d="M1068.75475,121.225875 C1041.19058,121.100571 1025.95236,144.9554 1025.81068,178.145408 C1025.68475,210.912513 1040.71832,234.86132 1068.28249,234.970961 C1095.87815,235.096266 1111.08488,211.2571 1111.22656,178.489995 C1111.36824,145.299987 1096.35041,121.335517 1068.75475,121.225875 M1068.09359,281.443238 C1010.27337,281.208292 970.8555,238.542137 971.107371,177.910462 C971.359243,116.840221 1011.13918,74.50299 1068.9594,74.7379358 C1126.79536,74.9885446 1166.19749,117.639036 1165.94562,178.72494 C1165.69374,239.356616 1125.92955,281.678184 1068.09359,281.443238" id="Fill-12" fill="#FFFFFF"></path>
                <g id="Group-16" transform="translate(1193.037879, 75.561904)">
                    <mask id="mask-4" fill="white">
                        <use xlink:href="#path-3"></use>
                    </mask>
                    <g id="Clip-15"></g>
                    <path d="M122.053367,58.6361111 C114.512968,54.1878042 104.721468,51.9166616 94.489194,51.8696724 C75.803487,51.7913572 60.6597211,61.4867866 56.5668114,79.6089382 L56.0630686,202.203649 L0.887497297,201.968703 L1.70607924,4.14435187 L56.8816506,4.3636346 L56.8029408,23.8328087 C65.3193414,9.70473546 81.8169159,0.0406321472 101.399915,0.118947409 C110.734897,0.165936566 119.172588,1.96718759 122.289496,3.75277556 L122.053367,58.6361111 Z" id="Fill-14" fill="#FFFFFF" mask="url(#mask-4)"></path>
                </g>
            </g>
        </g>
    </g>
</svg>